<svg class="icon" viewBox="0 0 1024 1024" xmlns="http://www.w3.org/2000/svg" width="200" height="200"><defs><style/></defs><path d="M950.857 932.571V310.857c0-9.728-8.558-18.286-18.286-18.286H310.857c-9.728 0-18.286 8.558-18.286 18.286v621.714c0 9.728 8.558 18.286 18.286 18.286h621.714c9.728 0 18.286-8.558 18.286-18.286zM1024 310.857v621.714c0 50.286-41.143 91.429-91.429 91.429H310.857a91.685 91.685 0 0 1-91.428-91.429V310.857c0-50.286 41.142-91.428 91.428-91.428h621.714c50.286 0 91.429 41.142 91.429 91.428zM804.571 91.43v91.428H731.43V91.43c0-9.728-8.558-18.286-18.286-18.286H91.429c-9.728 0-18.286 8.558-18.286 18.286v621.714c0 9.728 8.558 18.286 18.286 18.286h91.428v73.142H91.43A91.685 91.685 0 0 1 0 713.143V91.429C0 41.143 41.143 0 91.429 0h621.714c50.286 0 91.428 41.143 91.428 91.429z"/></svg>