<svg class="icon" viewBox="0 0 1024 1024" xmlns="http://www.w3.org/2000/svg" width="200" height="200"><defs><style/></defs><path d="M742.4 114.688h-512a128 128 0 0 0-128 128v512a128 128 0 0 0 128 128h512a128 128 0 0 0 128-128v-512a128 128 0 0 0-128-128zm76.8 640a76.8 76.8 0 0 1-76.8 76.8h-512a76.8 76.8 0 0 1-76.8-76.8v-512a76.8 76.8 0 0 1 76.8-76.8h512a76.8 76.8 0 0 1 76.8 76.8z"/><path d="M674.304 376.832l-278.016 240.64-97.28-93.696a25.6 25.6 0 0 0-35.328 36.864l114.176 110.08a25.6 25.6 0 0 0 34.304 0l295.424-256a25.6 25.6 0 0 0-33.28-38.912z"/></svg>