<svg class="icon" viewBox="0 0 1024 1024" xmlns="http://www.w3.org/2000/svg" width="200" height="200"><defs><style/></defs><path d="M554.495 229H898.94c27.896 0 50.512-22.228 50.512-49.65 0-27.416-22.616-49.643-50.512-49.643H554.495c-27.902 0-50.512 22.227-50.512 49.643h-.006c0 27.422 22.616 49.65 50.518 49.65zM261.467 140.89c-6.668-6.542-16.171-10.147-26.75-10.147-9.76 0-17.979 3.08-27.394 10.295L85.967 274.689c-6.761 6.64-10.328 15.013-10.328 24.22 0 18.668 16.636 33.861 37.072 33.861 8.574 0 15.942-3.648 24.483-12.02l62.538-67.011v194.828c0 19.933 14.38 33.86 34.985 33.86 20.923 0 34.45-13.298 34.456-33.86V253.739l62.374 66.83c7.777 7.635 17.962 12.201 27.257 12.201 18.356 0 34.456-15.822 34.456-33.86 0-10.175-4.047-17.864-8.29-24.844L261.466 140.891zm97.337 551.366c-9.295 0-19.48 4.57-27.257 12.206l-62.374 66.83V576.471c-.006-20.567-13.533-33.866-34.456-33.866-20.605 0-34.985 13.927-34.985 33.866v194.822l-62.538-67.01c-8.541-8.373-15.909-12.026-24.483-12.026-20.436 0-37.072 15.193-37.072 33.865 0 9.203 3.567 17.58 10.328 24.222l121.356 133.655c9.415 7.203 17.635 10.294 27.394 10.294 10.579 0 20.082-3.604 26.75-10.152l123.502-133.175c4.244-6.98 8.29-14.669 8.29-24.844 0-18.038-16.1-33.865-34.455-33.865zM898.941 351.47H554.495c-27.902 0-50.512 22.227-50.512 49.649h-.006c0 27.41 22.616 49.643 50.518 49.643H898.94c27.896 0 50.512-22.228 50.512-49.643 0-27.422-22.616-49.65-50.512-49.65zm0 221.762H554.495c-27.902 0-50.512 22.228-50.512 49.65h-.006c0 27.415 22.616 49.643 50.518 49.643H898.94c27.896 0 50.512-22.222 50.512-49.644s-22.616-49.649-50.512-49.649zm0 221.763H554.495c-27.902 0-50.512 22.233-50.512 49.65h-.006c0 27.415 22.616 49.648 50.518 49.648H898.94c27.896 0 50.512-22.227 50.512-49.649 0-27.416-22.616-49.649-50.512-49.649z"/></svg>