<svg class="icon" viewBox="0 0 1024 1024" xmlns="http://www.w3.org/2000/svg" width="200" height="200"><defs><style/></defs><path d="M551.4 569.8h51.2c7.7 0 12.8-5.1 12.8-12.8v-51.2c0-7.7-5.1-12.8-12.8-12.8h-51.2c-7.7 0-12.8 5.1-12.8 12.8V557c0 7.7 5.1 12.8 12.8 12.8zm128 0h51.2c7.7 0 12.8-5.1 12.8-12.8v-51.2c0-7.7-5.1-12.8-12.8-12.8h-51.2c-7.7 0-12.8 5.1-12.8 12.8V557c0 7.7 5.1 12.8 12.8 12.8zm-256 0h51.2c7.7 0 12.8-5.1 12.8-12.8v-51.2c0-7.7-5.1-12.8-12.8-12.8h-51.2c-7.7 0-12.8 5.1-12.8 12.8V557c0 7.7 5.1 12.8 12.8 12.8zm256 182h51.2c7.7 0 12.8-5.1 12.8-12.8v-51.2c0-7.7-5.1-12.8-12.8-12.8h-51.2c-7.7 0-12.8 5.1-12.8 12.8V739c0 7.7 5.1 12.8 12.8 12.8zm-128 0h51.2c7.7 0 12.8-5.1 12.8-12.8v-51.2c0-7.7-5.1-12.8-12.8-12.8h-51.2c-7.7 0-12.8 5.1-12.8 12.8V739c0 7.7 5.1 12.8 12.8 12.8zm-256 0h51.2c7.7 0 12.8-5.1 12.8-12.8v-51.2c0-7.7-5.1-12.8-12.8-12.8h-51.2c-7.7 0-12.8 5.1-12.8 12.8V739c0 7.7 5.1 12.8 12.8 12.8zm0-182h51.2c7.7 0 12.8-5.1 12.8-12.8v-51.2c0-7.7-5.1-12.8-12.8-12.8h-51.2c-7.7 0-12.8 5.1-12.8 12.8V557c0 7.7 5.1 12.8 12.8 12.8zm128 182h51.2c7.7 0 12.8-5.1 12.8-12.8v-51.2c0-7.7-5.1-12.8-12.8-12.8h-51.2c-7.7 0-12.8 5.1-12.8 12.8V739c0 7.7 5.1 12.8 12.8 12.8z"/><path d="M803 901H219c-49.6 0-90-40.4-90-90V260c0-49.6 40.4-90 90-90h584c49.6 0 90 40.4 90 90v551c0 49.6-40.4 90-90 90zM219 230c-16.5 0-30 13.5-30 30v551c0 16.5 13.5 30 30 30h584c16.5 0 30-13.5 30-30V260c0-16.5-13.5-30-30-30H219z"/><path d="M177 337h668v60H177zm165-61c-16.6 0-30-13.4-30-30v-91c0-16.6 13.4-30 30-30s30 13.4 30 30v91c0 16.6-13.4 30-30 30zm323 0c-16.6 0-30-13.4-30-30v-91c0-16.6 13.4-30 30-30s30 13.4 30 30v91c0 16.6-13.4 30-30 30z"/></svg>