<svg class="icon" viewBox="0 0 1024 1024" xmlns="http://www.w3.org/2000/svg" width="200" height="200"><defs><style/></defs><path d="M426.667 170.667v170.666h170.666V170.667H426.667m256 0v170.666h170.666V170.667H682.667m0 256v170.666h170.666V426.667H682.667m0 256v170.666h170.666V682.667H682.667m-85.334 170.666V682.667H426.667v170.666h170.666m-256 0V682.667H170.667v170.666h170.666m0-256V426.667H170.667v170.666h170.666m0-256V170.667H170.667v170.666h170.666m85.334 256h170.666V426.667H426.667v170.666m-256-512h682.666a85.333 85.333 0 0 1 85.334 85.334v682.666a85.333 85.333 0 0 1-85.334 85.334H170.667c-46.08 0-85.334-38.4-85.334-85.334V170.667a85.333 85.333 0 0 1 85.334-85.334z"/></svg>