<svg class="icon" viewBox="0 0 1024 1024" xmlns="http://www.w3.org/2000/svg" width="200" height="200"><defs><style/></defs><path d="M791.273 517.818a58.484 58.484 0 0 0-69.795 0L574.44 628.061 380.23 389.306l-2.42-2.676a58.112 58.112 0 0 0-80.268-1.885L116.364 584.47V240.803a54.69 54.69 0 0 1 54.62-54.621h682.031a54.69 54.69 0 0 1 54.621 54.62v364.289l-116.363-87.273zM907.636 806.47a54.69 54.69 0 0 1-54.62 54.62H170.984a54.69 54.69 0 0 1-54.621-54.62V688.384l219.834-242.572L528.826 682.66l2.397 2.653c20.364 20.364 53.062 22.714 76.032 5.423l149.109-111.826 151.272 113.455V806.47zm-54.62-690.106H170.984a124.556 124.556 0 0 0-124.44 124.439V806.47a124.556 124.556 0 0 0 124.44 124.44h682.03a124.556 124.556 0 0 0 124.44-124.44V240.803a124.556 124.556 0 0 0-124.44-124.44zm-108.289 221.09a46.545 46.545 0 1 0 .024 93.115 46.545 46.545 0 0 0-.024-93.114"/></svg>