<svg class="icon" viewBox="0 0 1024 1024" xmlns="http://www.w3.org/2000/svg" width="200" height="200"><defs><style/></defs><path d="M933.12 464.213c30.293-29.44 13.653-81.066-28.16-87.466L698.88 346.88c-16.64-2.56-31.147-12.8-38.4-28.16l-92.587-186.453c-18.773-37.974-72.96-37.974-91.733 0L384 319.147c-7.253 14.933-21.76 25.6-38.4 28.16l-206.08 29.866c-41.813 5.974-58.88 57.6-28.16 87.467l149.333 145.493c11.947 11.947 17.494 28.587 14.507 45.227l-35.413 205.227c-7.254 41.813 36.693 73.813 74.24 53.76l184.32-96.854c14.933-7.68 32.853-7.68 47.786 0l184.32 96.854c37.547 19.626 81.494-11.947 74.24-53.76L769.28 655.36c-2.987-16.64 2.56-33.707 14.507-45.227l149.333-145.92zM736.427 560.64c-28.16 27.307-40.96 66.987-34.56 105.813l29.44 171.094-153.6-80.64c-17.067-8.96-36.267-13.654-55.467-13.654s-38.4 4.694-55.467 13.654l-153.6 80.64 29.44-171.094c6.827-38.826-6.4-78.08-34.133-105.813L183.467 439.467l171.946-25.174c38.827-5.546 72.534-30.293 90.027-65.28l76.8-155.733 76.8 155.733c17.493 35.414 51.2 59.734 90.027 65.28l171.946 25.174L736.427 560.64z"/><path d="M581.547 674.987H462.08c-18.773 0-34.133-15.36-34.133-34.134s15.36-34.133 34.133-34.133h119.467c18.773 0 34.133 15.36 34.133 34.133s-15.36 34.134-34.133 34.134z"/></svg>