<svg class="icon" viewBox="0 0 1024 1024" xmlns="http://www.w3.org/2000/svg" width="200" height="200"><defs><style/></defs><path d="M512 65.984C266.08 65.984 65.984 266.08 65.984 512c0 245.952 200.064 446.016 446.016 446.016 245.952 0 446.016-200.064 446.016-446.016 0-245.92-200.064-446.016-446.016-446.016zm0 828.032c-210.656 0-382.016-171.392-382.016-382.016 0-210.656 171.36-382.016 382.016-382.016 210.624 0 382.016 171.36 382.016 382.016 0 210.624-171.392 382.016-382.016 382.016zM512 352c-88.224 0-160 71.776-160 160s71.776 160 160 160 160-71.776 160-160-71.776-160-160-160z"/></svg>