<svg class="icon" viewBox="0 0 1024 1024" xmlns="http://www.w3.org/2000/svg" width="200" height="200"><defs><style/></defs><path d="M944.742 430.9H557.67v-44.442c0-47.31-38.502-86.016-86.016-86.016H261.53c-47.31 0-86.016 38.502-86.016 86.016v44.441H79.258C36.045 430.9.614 466.125.614 509.542c0 43.213 35.226 78.644 78.644 78.644h96.46v49.561c0 47.309 38.503 86.016 86.016 86.016h210.33c47.309 0 86.016-38.502 86.016-86.016v-49.561h387.072c43.213 0 78.643-35.226 78.643-78.644-.41-43.417-35.635-78.643-79.053-78.643zM505.446 637.541c0 18.637-15.155 33.588-33.587 33.588H261.53c-18.636 0-33.587-15.156-33.587-33.588v-49.561h.205V430.899h-.205v-44.441c0-18.637 15.156-33.588 33.588-33.588h210.33c18.636 0 33.586 15.156 33.586 33.588v251.084z"/></svg>