<svg class="icon" viewBox="0 0 1024 1024" xmlns="http://www.w3.org/2000/svg" width="200" height="200"><defs><style/></defs><path d="M960 128H64a32 32 0 0 0-32 32v416a32 32 0 0 0 32 32h896a32 32 0 0 0 32-32V160a32 32 0 0 0-32-32zm-32 416H96V192h832v352zm-32 103.264a32 32 0 0 0-32 32V832H160V679.264a32 32 0 1 0-64 0V864a32 32 0 0 0 32 32h768a32 32 0 0 0 32-32V679.264a32 32 0 0 0-32-32z"/><path d="M685.92 470.368a31.904 31.904 0 0 0 45.728 0L854.88 344.352a31.968 31.968 0 1 0-45.76-44.736L708.768 402.24 608.384 299.616a32 32 0 0 0-45.76 44.736L685.92 470.368z"/></svg>